<svg width="180" height="177" viewBox="0 0 180 177" fill="none" xmlns="http://www.w3.org/2000/svg">
<path d="M178.933 53.4683C177.555 49.6493 174.553 47.6827 170.024 47.6017C169.797 45.5661 168.968 43.6685 167.56 42.1756C166.154 40.6875 164.343 39.7804 162.378 39.4804V10.4784L161.631 9.75939C161.579 9.65463 161.522 9.54987 161.457 9.44511L161.358 9.49987L160.225 8.40465H159.99C149.995 0.257139 96.601 0 89.9592 0C83.3149 0 29.9207 0.257139 19.9284 8.40465H19.6908L17.5354 10.4784V39.4899C15.6028 39.8018 13.8236 40.709 12.4378 42.1756C11.0273 43.6661 10.2008 45.5661 9.97309 47.6017C5.4446 47.6827 2.44293 49.6517 1.06706 53.4707C-0.048983 56.5659 -0.0217625 60.4706 0.0104071 64.992L0.0673226 73.1466C0.0994923 77.9537 1.90099 82.4703 5.14518 85.8679C8.33492 89.2083 12.5392 91.0797 17.0331 91.175L17.5379 91.3773V157.143V158.117V166.886L19.6933 168.96H20.1684C27.6367 174.476 61.004 177 89.9616 177C118.917 177 152.284 174.476 159.752 168.96H160.228L162.383 166.886V158.117V155.438V91.4083L162.972 91.1702C172.301 90.9726 179.868 82.9846 179.935 73.1442L179.99 64.9896C180.022 60.4706 180.049 56.5635 178.933 53.4683ZM15.625 44.9637C16.1695 44.3875 16.8277 43.9875 17.5354 43.747V53.5921C15.6102 52.9279 14.1972 51.0041 14.1824 48.7017C14.17 47.2851 14.6847 45.9565 15.625 44.9637ZM17.5354 87.0464C17.5156 87.0441 17.4934 87.0322 17.4711 87.0322C17.4364 87.0274 17.4117 87.0322 17.382 87.0322C13.9794 87.0322 10.7625 85.625 8.3176 83.0632C5.79847 80.4251 4.40032 76.8966 4.37558 73.1204L4.31866 64.9634C4.28897 60.9968 4.26422 57.2516 5.13528 54.8278C5.79847 52.985 6.91203 51.7541 10.1785 51.735C10.2601 51.735 10.327 51.6969 10.4086 51.6898C11.49 54.8969 14.1997 57.3016 17.5354 57.8564V87.0464ZM157.082 11.2094C155.655 12.4522 150.495 13.8784 142.217 15.126L146.882 8.0737C152.428 9.11416 155.947 10.2189 157.082 11.2094ZM129.347 5.77611C134.888 6.28563 139.691 6.88086 143.675 7.51895L139.236 14.2308C138.958 14.645 138.958 15.1355 139.142 15.5593C133.752 16.2736 127.259 16.9069 119.761 17.3807L129.018 6.69277C129.251 6.4261 129.345 6.09992 129.347 5.77611ZM111.775 4.60946C116.957 4.83565 121.75 5.13564 126.13 5.49516L117.207 15.7974C116.761 16.3093 116.771 17.0188 117.147 17.5402C111.493 17.8593 105.304 18.0855 98.6376 18.1926L111.35 5.6404C111.642 5.35469 111.783 4.98089 111.775 4.60946ZM93.3345 4.16899C98.6128 4.19994 103.619 4.3047 108.326 4.47375L94.7574 17.8712C94.646 17.9807 94.5768 18.1117 94.5075 18.2426C93.0673 18.2545 91.6369 18.2712 90.1522 18.2712C85.1214 18.2688 80.3281 18.1998 75.7847 18.0736L93.3345 4.16899ZM74.1144 4.39042C78.6924 4.24994 83.5228 4.16661 88.613 4.15232L72.3574 17.0331C72.0605 17.2688 71.8922 17.595 71.8402 17.9355C66.7871 17.7521 62.0409 17.5045 57.6906 17.195L73.5477 5.53088C73.9288 5.24755 74.107 4.82136 74.1144 4.39042ZM52.6647 5.5785C57.8366 5.14041 63.6147 4.77851 69.9373 4.52851L53.2041 16.8426C47.4111 16.3522 42.3333 15.7712 38.1091 15.1355L52.0139 7.23085C52.6226 6.88562 52.8577 6.19992 52.6647 5.5785ZM48.2797 5.98801L33.7687 14.2379C33.7044 14.2736 33.6648 14.3331 33.6079 14.3784C27.6293 13.2665 24.0189 12.0808 23.0983 11.0379C25.4343 9.36416 34.2166 7.39514 48.2797 5.98801ZM22.9919 11.1046C22.9993 11.1475 23.0166 11.1522 23.0166 11.207C23.0166 11.2665 23.0043 11.2689 22.9993 11.3118C22.9548 11.2784 22.8731 11.2403 22.8335 11.207C22.8706 11.1737 22.9498 11.1403 22.9919 11.1046ZM29.7846 24.7473C26.9166 24.3854 24.2886 23.1592 22.153 21.2926C22.054 21.2069 21.9451 21.1711 21.8412 21.114V15.2069C35.345 22.1807 83.6539 22.4164 89.9542 22.4164C90.0012 22.4164 90.0779 22.4164 90.1299 22.4164C90.1943 22.4164 90.2833 22.4164 90.3403 22.4164C96.5737 22.4164 144.009 22.1878 158.065 15.4236V88.6536L127.966 100.77C126.61 95.913 122.055 92.2916 116.576 92.2559L63.4811 91.9392H63.4093C57.8168 91.9392 53.1324 95.6797 51.858 100.699L21.8437 88.6202V24.7378C24.202 26.3211 26.8498 27.2996 29.7846 27.6711C31.7173 27.9163 31.7 24.9901 29.7846 24.7473ZM124.111 103.768V103.77C124.089 107.791 120.679 111.041 116.502 111.041H116.455L63.3623 110.725C59.1679 110.699 55.7728 107.396 55.8 103.363C55.8247 99.3391 59.2347 96.0844 63.4118 96.0844H63.4588L116.551 96.4011C120.75 96.4273 124.141 99.7344 124.111 103.768ZM158.072 165.188L157.308 165.522C154.618 168.479 131.349 172.855 89.9592 172.855C48.5668 172.855 25.3007 168.481 22.6083 165.522L21.8462 165.188V161.179C31.7495 166.007 62.7956 168.229 89.9592 168.229C117.123 168.229 148.166 166.007 158.072 161.179V165.188ZM158.072 155.438H158.07V156.417L157.308 156.753C154.618 159.71 131.349 164.083 89.9592 164.083C48.5668 164.083 25.3007 159.71 22.6083 156.753L21.8462 156.417V93.1106L51.6699 105.11C52.531 110.589 57.3986 114.832 63.34 114.87L116.435 115.187H116.507C122.567 115.187 127.541 110.791 128.273 105.134L158.072 93.1416V155.438ZM162.378 43.7208C163.118 43.9566 163.806 44.3637 164.372 44.9637C165.313 45.9589 165.825 47.2851 165.815 48.7017C165.8 51.0374 164.348 52.985 162.378 53.6207V43.7208ZM175.679 64.9634L175.627 73.1204C175.575 80.8346 169.7 87.1464 162.544 87.0322C162.489 87.0226 162.435 87.0393 162.38 87.0393V57.8635C165.753 57.3373 168.5 54.9231 169.591 51.6874C169.671 51.6945 169.737 51.7326 169.819 51.7326C173.085 51.7493 174.199 52.9826 174.862 54.8255C175.736 57.2516 175.709 60.9968 175.679 64.9634Z" fill="black"/>
<path d="M38.4482 29.5972C44.9613 31.5758 56.0895 32.2448 65.0302 32.7805C69.8655 33.071 75.3443 33.3996 76.2351 33.8043C76.5742 34.021 76.6509 34.1472 76.6558 34.1472C76.6731 34.29 76.5024 34.7615 76.3861 35.0757C76.1337 35.7686 75.7897 36.7162 75.7501 37.8947C75.6759 40.1804 76.7201 42.5661 78.346 43.8399C79.462 44.7137 80.8156 45.0185 82.1395 44.7137C84.7675 44.1042 85.7747 41.5899 86.5863 39.5757C87.3485 37.6686 87.8855 36.5067 88.8506 36.44C89.2069 36.409 89.4569 36.5138 89.7216 36.7519C90.4739 37.4138 91.0109 38.9876 91.0282 40.5757C91.0579 42.8899 91.1148 47.1946 94.6263 48.497C95.1484 48.6898 95.6879 48.7851 96.2298 48.7851C96.9821 48.7851 97.7442 48.5994 98.4866 48.2279C100.182 47.3803 101.597 45.5946 102.095 43.6756C102.439 42.3471 102.488 41.028 102.533 39.7542C102.577 38.5662 102.619 37.4447 102.894 36.4019C103.183 35.3019 104.035 34.2138 104.965 33.7615C105.46 33.5186 105.908 33.4758 106.334 33.6448C107.65 34.1496 107.794 36.0114 107.86 38.7947C107.935 41.7733 108.026 45.4804 111.614 46.4137C112.965 46.7684 114.351 46.4851 115.514 45.6232C117.244 44.3399 118.397 41.8471 118.38 39.4138C118.363 36.6114 119.523 33.1091 121.213 32.571C123.138 31.9567 125.576 31.8139 128.394 31.6472C132.898 31.3829 138.503 31.0544 145.031 28.6544C145.816 28.3663 146.207 27.5235 145.907 26.7663C145.613 26.0068 144.732 25.6378 143.952 25.9235C137.86 28.1615 132.737 28.4615 128.216 28.7258C125.182 28.9044 122.564 29.0568 120.263 29.7925C116.618 30.9544 115.326 36.19 115.346 39.4281C115.356 40.9209 114.631 42.5899 113.661 43.3066C113.121 43.7089 112.691 43.6637 112.409 43.5923C111.11 43.2518 110.973 41.528 110.904 38.7233C110.832 35.8114 110.741 32.1877 107.464 30.9306C106.232 30.4544 104.859 30.5353 103.589 31.1544C101.887 31.9877 100.459 33.7662 99.9541 35.6805C99.6002 37.0233 99.5482 38.3614 99.5012 39.6519C99.4567 40.828 99.4195 41.9375 99.1473 42.9685C98.8603 44.0732 98.014 45.1685 97.0885 45.6327C96.5911 45.8827 96.1457 45.928 95.7176 45.7661C94.2526 45.2232 94.0992 42.7828 94.0695 40.5423C94.0447 38.6257 93.4335 36.0591 91.783 34.5995C90.8946 33.8115 89.7983 33.4567 88.6353 33.5234C85.6782 33.7329 84.6116 36.3876 83.7529 38.5209C83.0007 40.3947 82.434 41.6399 81.4293 41.8709C81.1645 41.9304 80.7686 41.9637 80.2662 41.5709C79.3803 40.8804 78.7468 39.3376 78.7914 37.9852C78.8137 37.2567 79.0388 36.64 79.2566 36.0424C79.7045 34.8091 80.3801 32.952 77.9203 31.371C76.74 30.6163 73.6764 30.371 65.2207 29.8615C56.9061 29.3663 45.5255 28.6806 39.3638 26.8092C38.5719 26.5711 37.7107 26.9925 37.4583 27.7639C37.2059 28.533 37.6489 29.3544 38.4482 29.5972Z" fill="black"/>
<path d="M114.324 105.075L114.317 105.027C114.247 105.001 114.096 105.039 113.992 105.058C113.168 105.02 112.01 105.011 110.389 105.003L83.8445 104.844H83.8346C83.0056 104.844 82.335 105.487 82.3275 106.287C82.3226 107.087 82.9907 107.739 83.8247 107.746L114.279 107.93H114.297H114.314H114.537V107.913C115.296 107.811 116.054 107.213 116.059 106.491C116.066 105.508 116.069 105.189 114.324 105.075Z" fill="black"/>
<path d="M76.631 104.801L66.8391 104.741H66.8292C66.0027 104.741 65.3296 105.384 65.3222 106.184C65.3172 106.984 65.9854 107.637 66.8193 107.644L76.6137 107.703H76.6211C77.4501 107.703 78.1207 107.06 78.1282 106.263C78.1356 105.46 77.465 104.806 76.631 104.801Z" fill="black"/>
<path d="M151.356 26.5139C153.2 25.8853 154.964 25.1115 156.654 24.1663C158.347 23.2211 156.818 20.6925 155.122 21.6425C153.658 22.4639 152.148 23.152 150.549 23.6949C148.718 24.3187 149.505 27.1448 151.356 26.5139Z" fill="black"/>
</svg>
