<svg width="480" height="480" viewBox="0 0 480 480" fill="none" xmlns="http://www.w3.org/2000/svg">
<g filter="url(#filter0_d_118_1230)">
<path d="M371.443 344.299C371.977 342.078 371.203 340.262 369.156 338.895C369.672 337.86 369.872 336.714 369.683 335.591C369.493 334.471 368.941 333.508 368.133 332.789L376.978 318.996L376.855 318.434C376.863 318.369 376.869 318.303 376.871 318.234L376.809 318.231L376.625 317.378L376.517 317.309C374.428 310.501 350.073 294.713 347.034 292.764C343.993 290.814 319.482 275.271 312.425 276.214L312.316 276.144L310.697 276.498L301.85 290.296C300.871 289.877 299.78 289.787 298.699 290.078C297.599 290.373 296.641 291.034 295.916 291.935C293.819 290.645 291.845 290.701 290.051 292.113C288.596 293.258 287.418 295.123 286.054 297.283L283.593 301.178C282.142 303.474 281.589 306.15 282.038 308.718C282.479 311.243 283.832 313.366 285.859 314.73L286.028 314.975L265.973 346.253L265.676 346.716L263.002 350.887L263.356 352.505L263.574 352.645C265.309 357.46 279.808 368.45 293.059 376.947C306.309 385.442 322.348 394.032 327.447 393.6L327.665 393.739L329.284 393.385L331.958 389.215L332.774 387.941L352.3 357.488L352.642 357.547C356.972 360.19 362.871 358.612 365.902 353.951L368.414 350.089C369.806 347.949 371.01 346.099 371.443 344.299ZM299.307 292.339C299.732 292.224 300.155 292.227 300.552 292.321L297.55 297.003C296.871 296.122 296.811 294.793 297.507 293.693C297.933 293.016 298.574 292.535 299.307 292.339ZM287.348 312.914C287.34 312.907 287.333 312.895 287.323 312.888C287.309 312.876 287.296 312.871 287.282 312.862C285.725 311.864 284.682 310.251 284.345 308.315C283.996 306.321 284.433 304.233 285.573 302.43L288.034 298.533C289.23 296.638 290.361 294.85 291.499 293.952C292.364 293.271 293.249 293.012 294.75 293.961C294.787 293.985 294.829 293.987 294.869 294.007C294.386 295.85 294.892 297.789 296.249 299.031L287.348 312.914V312.914ZM374.331 317.789C373.299 317.962 370.503 317.126 366.335 315.291L370.62 313.305C372.84 315.427 374.114 316.985 374.331 317.789ZM363.297 307.068C365.677 308.936 367.693 310.628 369.322 312.1L365.243 313.99C364.99 314.106 364.841 314.339 364.795 314.594C362.111 313.353 358.946 311.749 355.371 309.774L362.866 307.407C363.054 307.349 363.197 307.221 363.297 307.068ZM355.611 301.357C357.914 302.985 360.015 304.534 361.91 305.99L354.685 308.272C354.325 308.385 354.113 308.725 354.126 309.083C351.442 307.576 348.541 305.868 345.457 303.963L355.102 301.723C355.323 301.672 355.501 301.536 355.611 301.357ZM347.307 295.737C349.713 297.3 351.972 298.819 354.074 300.28L343.78 302.671C343.695 302.691 343.624 302.733 343.552 302.775C342.889 302.358 342.23 301.946 341.55 301.51C339.249 300.033 337.077 298.594 335.036 297.201L347.307 295.737ZM338.444 290.203C340.582 291.479 342.818 292.857 345.152 294.344L333.785 295.7C333.577 295.725 333.401 295.831 333.273 295.978C331.017 294.408 328.92 292.898 327.024 291.474L337.837 290.579C338.098 290.556 338.31 290.406 338.444 290.203ZM328.267 284.475C330.767 285.784 333.521 287.307 336.491 289.043L325.079 289.99C322.577 288.057 320.431 286.291 318.692 284.749L327.465 285.07C327.849 285.084 328.166 284.827 328.267 284.475ZM326.135 283.383L316.979 283.049C316.939 283.047 316.903 283.064 316.863 283.069C314.466 280.786 313.175 279.162 313.072 278.396C314.652 278.286 319.271 279.926 326.135 283.383ZM313.003 278.397C312.994 278.419 313 278.427 312.983 278.453C312.965 278.481 312.959 278.479 312.943 278.497C312.933 278.469 312.907 278.426 312.9 278.399C312.927 278.394 312.973 278.401 313.003 278.397ZM311.951 286.878C310.749 285.865 309.921 284.51 309.513 282.996C309.493 282.926 309.454 282.877 309.424 282.82L311.226 280.01C315.278 287.289 337.313 301.575 340.196 303.424C340.217 303.438 340.252 303.46 340.276 303.475C340.306 303.494 340.346 303.52 340.372 303.537C343.225 305.366 365.001 319.175 373.496 320.082L351.164 354.911L333.696 351.842C334.557 349.134 333.577 346.075 331.08 344.451L306.881 328.722L306.848 328.701C304.289 327.06 301.005 327.464 298.891 329.478L288.84 314.927L308.32 284.544C308.917 285.989 309.83 287.231 311.06 288.269C311.869 288.953 312.754 287.556 311.951 286.878ZM331.018 352.137L331.017 352.138C329.781 354.044 327.229 354.589 325.318 353.363L325.296 353.35L301.098 337.621C299.186 336.378 298.64 333.812 299.882 331.901C301.121 329.995 303.674 329.447 305.585 330.673L305.607 330.687L329.805 346.415C331.719 347.659 332.262 350.227 331.018 352.137ZM327.829 391.313L327.377 391.247C325.244 391.864 313.262 387.118 294.322 374.974C275.381 362.83 266.068 353.923 265.739 351.726L265.491 351.343L266.714 349.437C269.773 354.639 283.303 364.804 295.733 372.774C308.163 380.744 323.046 388.796 329.051 389.406L327.829 391.313ZM330.802 386.676L330.801 386.675L330.502 387.141L330.051 387.077C327.919 387.694 315.937 382.947 296.997 370.803C278.056 358.658 268.743 349.751 268.413 347.555L268.166 347.172L287.471 317.063L297.459 331.521C296.183 334.379 297.116 337.825 299.824 339.586L324.023 355.315L324.056 355.336C326.829 357.114 330.446 356.483 332.506 354.008L349.799 357.047L330.802 386.676ZM366.84 334.806C367.107 335.135 367.298 335.53 367.374 335.982C367.501 336.731 367.331 337.512 366.894 338.183C366.175 339.29 364.917 339.79 363.821 339.514L366.84 334.806ZM366.449 348.811L363.938 352.676C361.561 356.329 356.948 357.608 353.708 355.454C353.686 355.433 353.656 355.425 353.632 355.409L362.529 341.533C364.233 342.272 366.226 341.93 367.712 340.711C367.746 340.738 367.765 340.776 367.802 340.8C369.292 341.766 369.425 342.679 369.167 343.75C368.827 345.16 367.672 346.934 366.449 348.811Z" fill="black"/>
<path d="M314.437 291.727C316.814 294.579 321.702 298.162 325.63 301.04C327.754 302.597 330.161 304.361 330.445 304.815C330.534 305.017 330.531 305.1 330.533 305.101C330.497 305.174 330.276 305.348 330.127 305.464C329.8 305.719 329.353 306.069 328.976 306.618C328.245 307.683 327.995 309.124 328.351 310.207C328.595 310.95 329.121 311.492 329.82 311.736C331.209 312.217 332.436 311.316 333.422 310.597C334.352 309.913 334.952 309.518 335.414 309.77C335.587 309.859 335.669 309.983 335.718 310.174C335.86 310.709 335.626 311.615 335.15 312.375C334.457 313.485 333.171 315.549 334.38 317.199C334.561 317.443 334.778 317.647 335.026 317.806C335.371 318.027 335.776 318.162 336.229 318.203C337.263 318.297 338.455 317.864 339.268 317.097C339.831 316.566 340.256 315.953 340.665 315.36C341.047 314.808 341.408 314.287 341.852 313.872C342.32 313.434 343.041 313.166 343.605 313.224C343.906 313.253 344.124 313.365 344.267 313.57C344.715 314.196 344.213 315.124 343.395 316.467C342.521 317.905 341.432 319.695 342.79 321.192C343.3 321.757 344.02 322.029 344.815 321.96C345.998 321.858 347.286 321.01 348.02 319.848C348.867 318.51 350.466 317.185 351.403 317.425C352.472 317.698 353.631 318.345 354.971 319.093C357.113 320.288 359.778 321.777 363.497 322.55C363.944 322.644 364.38 322.357 364.473 321.909C364.57 321.462 364.28 321.028 363.836 320.935C360.365 320.212 357.93 318.852 355.781 317.651C354.338 316.846 353.093 316.15 351.816 315.825C349.794 315.308 347.606 317.419 346.627 318.965C346.177 319.678 345.336 320.259 344.674 320.315C344.304 320.348 344.121 320.2 344.013 320.083C343.523 319.54 343.986 318.68 344.81 317.326C345.665 315.92 346.728 314.17 345.612 312.611C345.193 312.023 344.54 311.658 343.771 311.58C342.737 311.477 341.542 311.904 340.727 312.666C340.155 313.201 339.724 313.822 339.309 314.422C338.93 314.968 338.574 315.485 338.135 315.896C337.667 316.337 336.946 316.609 336.381 316.559C336.077 316.532 335.859 316.423 335.713 316.22C335.208 315.532 335.882 314.326 336.551 313.252C337.125 312.333 337.628 310.933 337.317 309.755C337.151 309.119 336.758 308.629 336.205 308.319C334.788 307.551 333.491 308.501 332.447 309.264C331.531 309.934 330.892 310.36 330.362 310.175C330.223 310.126 330.031 310.025 329.921 309.691C329.727 309.103 329.907 308.183 330.34 307.553C330.572 307.213 330.863 306.986 331.145 306.766C331.726 306.31 332.602 305.625 331.958 304.152C331.648 303.446 330.321 302.431 326.607 299.708C322.954 297.033 317.955 293.367 315.706 290.669C315.416 290.324 314.894 290.272 314.543 290.564C314.193 290.856 314.145 291.377 314.437 291.727Z" fill="black"/>
<path d="M326.141 349.887L326.152 349.862C326.128 349.829 326.048 349.803 325.994 349.782C325.629 349.522 325.102 349.177 324.362 348.698L312.264 340.834L312.259 340.831C311.88 340.588 311.377 340.697 311.13 341.075C310.884 341.454 310.99 341.961 311.37 342.209L325.25 351.231L325.258 351.236L325.266 351.242L325.368 351.307L325.373 351.299C325.752 351.473 326.28 351.411 326.503 351.069C326.806 350.604 326.904 350.453 326.141 349.887Z" fill="black"/>
<path d="M308.976 338.697L304.513 335.796L304.509 335.793C304.131 335.55 303.627 335.659 303.379 336.037C303.133 336.416 303.24 336.922 303.619 337.17L308.083 340.072L308.086 340.075C308.466 340.318 308.969 340.209 309.215 339.832C309.463 339.452 309.356 338.944 308.976 338.697Z" fill="black"/>
<path d="M367.044 323.388C368.079 323.63 369.123 323.78 370.184 323.826C371.247 323.873 371.318 322.222 370.253 322.177C369.332 322.137 368.431 322.022 367.534 321.811C366.506 321.57 366.004 323.145 367.044 323.388Z" fill="black"/>
</g>
<g filter="url(#filter1_d_118_1230)">
<path d="M191.272 192.964C189.729 191.28 187.791 190.906 185.513 191.84C184.943 190.833 184.104 190.028 183.067 189.557C182.033 189.088 180.926 189.007 179.878 189.275L173.383 174.232L172.849 174.02C172.8 173.977 172.748 173.935 172.692 173.894L172.655 173.944L171.844 173.62L171.727 173.671C164.915 171.598 138.21 182.969 134.895 184.4C131.579 185.832 104.99 197.469 101.828 203.849L101.709 203.9L101.098 205.44L107.595 220.488C106.7 221.066 106.015 221.92 105.652 222.979C105.282 224.056 105.295 225.22 105.637 226.325C103.395 227.343 102.338 229.011 102.507 231.288C102.643 233.134 103.531 235.153 104.559 237.492L106.414 241.709C107.506 244.196 109.417 246.15 111.797 247.214C114.137 248.259 116.654 248.324 118.918 247.405L119.215 247.401L133.943 281.514L134.161 282.019L136.124 286.567L137.664 287.178L137.902 287.076C142.864 288.328 160.082 282.448 174.533 276.209C188.984 269.97 205.071 261.472 207.563 257.001L207.8 256.899L208.411 255.359L206.447 250.81L205.848 249.421L191.509 216.209L191.749 215.958C196.361 213.846 198.349 208.072 196.179 202.954L194.38 198.712C193.384 196.361 192.522 194.329 191.272 192.964ZM107.867 223.739C108.01 223.323 108.248 222.973 108.548 222.696L110.753 227.803C109.643 227.873 108.507 227.179 107.984 225.988C107.661 225.256 107.62 224.456 107.867 223.739ZM118.244 245.155C118.234 245.158 118.22 245.157 118.209 245.162C118.191 245.167 118.179 245.175 118.164 245.181C116.466 245.914 114.546 245.877 112.752 245.075C110.904 244.25 109.416 242.721 108.558 240.767L106.703 236.549C105.8 234.498 104.949 232.56 104.841 231.115C104.759 230.017 105.039 229.138 106.665 228.425C106.706 228.407 106.731 228.373 106.77 228.351C108.028 229.782 109.918 230.445 111.707 230.014L118.244 245.155V245.155ZM170.904 175.752C170.47 176.704 168.214 178.556 164.363 180.986L165.111 176.323C168.112 175.668 170.115 175.483 170.904 175.752ZM155.846 178.91C158.725 177.98 161.255 177.254 163.387 176.727L162.674 181.164C162.629 181.439 162.738 181.693 162.925 181.874C160.395 183.406 157.296 185.133 153.66 186.994L155.887 179.456C155.943 179.268 155.917 179.078 155.846 178.91ZM146.815 182.091C149.452 181.091 151.911 180.214 154.177 179.457L152.031 186.723C151.923 187.085 152.087 187.451 152.392 187.64C149.641 189.024 146.603 190.475 143.3 191.967L146.833 182.717C146.915 182.506 146.902 182.282 146.815 182.091ZM137.513 185.835C140.154 184.714 142.676 183.69 145.063 182.763L141.292 192.636C141.261 192.717 141.256 192.8 141.25 192.883C140.534 193.199 139.824 193.516 139.083 193.836C136.572 194.918 134.164 195.915 131.869 196.829L137.513 185.835ZM127.971 190.091C130.224 189.032 132.616 187.948 135.153 186.844L129.925 197.028C129.83 197.214 129.819 197.419 129.869 197.607C127.306 198.601 124.882 199.495 122.642 200.272L127.943 190.805C128.07 190.576 128.064 190.317 127.971 190.091ZM117.532 195.329C120.015 193.988 122.818 192.555 125.917 191.063L120.324 201.056C117.323 202.049 114.659 202.842 112.408 203.423L117.577 196.327C117.804 196.016 117.768 195.61 117.532 195.329ZM115.436 196.486L110.041 203.892C110.017 203.925 110.011 203.964 109.992 204C106.76 204.711 104.692 204.874 103.999 204.531C104.79 203.16 108.732 200.246 115.436 196.486ZM103.961 204.589C103.974 204.61 103.984 204.608 103.996 204.637C104.01 204.668 104.004 204.671 104.011 204.695C103.982 204.687 103.932 204.685 103.905 204.676C103.916 204.651 103.948 204.616 103.961 204.589ZM110.406 210.202C108.894 210.632 107.308 210.562 105.824 210.054C105.755 210.031 105.693 210.036 105.628 210.029L104.306 206.965C112.606 207.672 136.768 197.386 139.913 196.029C139.936 196.018 139.974 196.002 140 195.991C140.032 195.977 140.077 195.958 140.105 195.945C143.216 194.602 166.838 184.263 172.338 177.726L188.737 215.71L176.429 228.48C174.665 226.253 171.58 225.356 168.838 226.518L142.27 237.794L142.234 237.809C139.443 239.014 137.943 241.964 138.43 244.841L120.747 245.043L106.441 211.908C107.973 212.221 109.513 212.158 111.061 211.718C112.08 211.429 111.416 209.915 110.406 210.202ZM175.177 230.866L175.177 230.867C176.066 232.958 175.092 235.378 173.008 236.278L172.984 236.288L146.417 247.563C144.318 248.453 141.884 247.472 140.994 245.374C140.106 243.282 141.079 240.859 143.163 239.959L143.187 239.949L169.754 228.674C171.856 227.782 174.288 228.767 175.177 230.866ZM205.88 255.407L205.573 255.745C204.892 257.858 194.26 265.141 173.604 274.059C152.946 282.978 140.356 285.722 138.349 284.767L137.894 284.758L136.996 282.679C143.02 283.049 159.012 277.512 172.568 271.66C186.124 265.807 201.119 257.966 204.982 253.327L205.88 255.407ZM203.696 250.35L203.695 250.35L203.914 250.858L203.609 251.196C202.929 253.31 192.296 260.592 171.64 269.51C150.982 278.428 138.392 281.172 136.386 280.219L135.93 280.209L121.754 247.372L139.325 247.17C140.981 249.827 144.361 250.978 147.334 249.718L173.903 238.443L173.939 238.427C176.963 237.121 178.461 233.77 177.56 230.678L189.746 218.037L203.696 250.35ZM180.827 191.475C181.249 191.437 181.684 191.5 182.101 191.69C182.793 192.003 183.346 192.581 183.658 193.318C184.174 194.532 183.885 195.855 183.044 196.61L180.827 191.475ZM192.222 199.627L194.023 203.869C195.725 207.882 194.206 212.422 190.609 213.904C190.58 213.911 190.556 213.931 190.529 213.943L183.996 198.81C185.561 197.81 186.391 195.966 186.211 194.053C186.253 194.039 186.294 194.045 186.335 194.027C187.969 193.332 188.801 193.732 189.545 194.545C190.524 195.615 191.349 197.563 192.222 199.627Z" fill="black"/>
<path d="M115.816 210.851C119.509 210.474 125.213 208.423 129.795 206.775C132.273 205.883 135.081 204.873 135.616 204.891C135.834 204.931 135.9 204.98 135.903 204.979C135.943 205.049 135.964 205.33 135.976 205.518C136.005 205.932 136.046 206.498 136.29 207.118C136.765 208.319 137.82 209.332 138.917 209.642C139.67 209.855 140.413 209.721 141.006 209.278C142.181 208.395 142.12 206.874 142.074 205.655C142.028 204.501 142.036 203.783 142.502 203.54C142.673 203.448 142.821 203.448 143.007 203.514C143.53 203.696 144.151 204.396 144.515 205.216C145.048 206.41 146.041 208.631 148.085 208.55C148.388 208.537 148.679 208.471 148.949 208.354C149.325 208.192 149.664 207.931 149.951 207.579C150.607 206.774 150.914 205.542 150.732 204.44C150.606 203.677 150.336 202.982 150.073 202.312C149.829 201.686 149.599 201.095 149.502 200.495C149.4 199.862 149.582 199.114 149.945 198.679C150.137 198.446 150.351 198.328 150.601 198.324C151.371 198.302 151.86 199.237 152.517 200.666C153.221 202.195 154.097 204.098 156.096 203.809C156.85 203.702 157.478 203.256 157.866 202.559C158.441 201.52 158.459 199.979 157.905 198.72C157.269 197.271 157.064 195.204 157.787 194.561C158.61 193.827 159.795 193.228 161.164 192.534C163.352 191.427 166.076 190.049 168.796 187.397C169.123 187.079 169.13 186.557 168.811 186.229C168.494 185.899 167.971 185.897 167.646 186.213C165.107 188.687 162.618 189.946 160.421 191.057C158.947 191.804 157.674 192.447 156.69 193.324C155.131 194.712 155.659 197.706 156.394 199.382C156.733 200.154 156.745 201.176 156.422 201.756C156.243 202.081 156.018 202.151 155.861 202.174C155.136 202.278 154.682 201.413 154.02 199.973C153.332 198.478 152.475 196.618 150.558 196.672C149.836 196.691 149.169 197.029 148.674 197.623C148.011 198.422 147.697 199.652 147.873 200.754C147.998 201.527 148.271 202.232 148.537 202.912C148.778 203.531 149.008 204.115 149.103 204.708C149.207 205.343 149.03 206.093 148.672 206.534C148.48 206.77 148.268 206.89 148.018 206.898C147.165 206.932 146.542 205.699 146.025 204.544C145.584 203.555 144.704 202.355 143.554 201.954C142.934 201.737 142.307 201.789 141.742 202.074C140.313 202.82 140.375 204.427 140.424 205.718C140.468 206.852 140.464 207.62 140.015 207.956C139.896 208.044 139.706 208.147 139.367 208.051C138.77 207.884 138.109 207.22 137.828 206.509C137.676 206.127 137.65 205.758 137.625 205.401C137.573 204.665 137.494 203.556 135.912 203.266C135.154 203.129 133.57 203.662 129.236 205.219C124.976 206.754 119.143 208.85 115.649 209.207C115.2 209.254 114.865 209.659 114.911 210.113C114.958 210.566 115.363 210.897 115.816 210.851Z" fill="black"/>
<path d="M170.585 233.652L170.571 233.629C170.53 233.631 170.463 233.683 170.416 233.715C169.996 233.873 169.416 234.118 168.605 234.463L155.322 240.1L155.317 240.102C154.903 240.28 154.713 240.758 154.888 241.175C155.065 241.591 155.544 241.785 155.962 241.609L171.202 235.143L171.211 235.139L171.219 235.135L171.33 235.087L171.327 235.079C171.683 234.862 171.927 234.389 171.768 234.013C171.551 233.502 171.481 233.336 170.585 233.652Z" fill="black"/>
<path d="M151.712 241.632L146.812 243.711L146.807 243.713C146.395 243.891 146.203 244.369 146.378 244.786C146.555 245.202 147.035 245.396 147.452 245.22L152.354 243.141L152.357 243.139C152.771 242.961 152.962 242.483 152.787 242.067C152.611 241.65 152.13 241.455 151.712 241.632Z" fill="black"/>
<path d="M171.474 184.924C172.253 184.201 172.96 183.419 173.592 182.565C174.225 181.71 172.896 180.728 172.262 181.586C171.715 182.328 171.116 183.01 170.44 183.636C169.666 184.354 170.691 185.65 171.474 184.924Z" fill="black"/>
</g>
<g filter="url(#filter2_d_118_1230)">
<path d="M375.14 132.832C375.323 130.556 374.277 128.881 372.043 127.848C372.393 126.745 372.412 125.583 372.051 124.502C371.691 123.425 370.996 122.559 370.087 121.974L376.688 106.977L376.48 106.442C376.478 106.376 376.473 106.309 376.465 106.241L376.403 106.248L376.089 105.433L375.972 105.382C372.853 98.9799 346.347 87.1543 343.042 85.6999C339.737 84.2449 313.113 72.6852 306.287 74.7101L306.169 74.6581L304.625 75.2584L298.022 90.2602C296.989 89.9983 295.898 90.0777 294.874 90.5326C293.833 90.9945 292.99 91.796 292.413 92.7987C290.142 91.8489 288.2 92.2098 286.646 93.8833C285.387 95.2394 284.511 97.2645 283.498 99.6095L281.671 103.839C280.593 106.332 280.461 109.062 281.302 111.529C282.128 113.955 283.794 115.843 286.008 116.876L286.213 117.092L271.245 151.099L271.023 151.603L269.028 156.137L269.628 157.681L269.864 157.785C272.324 162.273 288.351 170.885 302.758 177.227C317.164 183.568 334.34 189.57 339.311 188.352L339.547 188.456L341.092 187.856L343.087 183.322L343.697 181.937L358.27 148.827L358.618 148.833C363.304 150.773 368.887 148.3 371.16 143.226L373.043 139.021C374.088 136.692 374.99 134.677 375.14 132.832ZM295.826 92.6723C296.228 92.4936 296.646 92.4309 297.053 92.4615L294.812 97.5524C294.006 96.7873 293.74 95.4831 294.257 94.2893C294.573 93.5541 295.132 92.9798 295.826 92.6723ZM287.198 114.852C287.189 114.846 287.18 114.835 287.169 114.83C287.153 114.82 287.14 114.817 287.125 114.811C285.432 114.065 284.152 112.633 283.518 110.773C282.866 108.857 282.973 106.727 283.82 104.769L285.648 100.538C286.536 98.4806 287.377 96.5385 288.362 95.4759C289.111 94.6682 289.945 94.2756 291.575 94.981C291.615 94.9989 291.657 94.9939 291.699 95.008C291.507 96.9032 292.308 98.7401 293.842 99.7574L287.198 114.852V114.852ZM373.887 106.195C372.893 106.525 370.002 106.133 365.6 104.965L369.525 102.34C372.048 104.093 373.547 105.434 373.887 106.195ZM361.324 97.3121C363.965 98.7889 366.219 100.149 368.056 101.351L364.32 103.849C364.088 104.003 363.976 104.257 363.971 104.516C361.127 103.705 357.752 102.61 353.914 101.214L360.952 97.7141C361.128 97.6271 361.249 97.479 361.324 97.3121ZM352.847 92.8608C355.374 94.1125 357.69 95.3173 359.788 96.4624L353.003 99.8356C352.665 100.003 352.509 100.372 352.577 100.724C349.691 99.6505 346.561 98.4122 343.22 97.0077L352.401 93.3007C352.611 93.2169 352.767 93.0545 352.847 92.8608ZM343.773 88.5948C346.392 89.7667 348.859 90.9171 351.162 92.0352L341.362 95.9918C341.282 96.024 341.218 96.0766 341.153 96.1291C340.434 95.8199 339.719 95.5153 338.98 95.1901C336.478 94.0872 334.108 93.0018 331.877 91.9417L343.773 88.5948ZM334.16 84.5003C336.47 85.4302 338.892 86.4449 341.428 87.5522L330.408 90.6531C330.207 90.71 330.049 90.8418 329.946 91.0065C327.473 89.8051 325.168 88.6377 323.074 87.525L333.619 84.966C333.873 84.9029 334.058 84.7216 334.16 84.5003ZM323.218 80.4175C325.891 81.3235 328.848 82.4017 332.05 83.657L320.923 86.3603C318.152 84.8381 315.758 83.4257 313.801 82.1719L322.518 81.1294C322.899 81.0842 323.172 80.7811 323.218 80.4175ZM320.943 79.669L311.846 80.7573C311.806 80.7617 311.772 80.7838 311.734 80.7947C309.012 78.9105 307.486 77.5068 307.265 76.7659C308.808 76.412 313.626 77.317 320.943 79.669ZM307.197 76.7771C307.191 76.8009 307.199 76.8071 307.186 76.8355C307.173 76.8662 307.166 76.8648 307.154 76.8858C307.139 76.8588 307.107 76.8213 307.095 76.7954C307.121 76.7862 307.168 76.7863 307.197 76.7771ZM307.472 85.3192C306.127 84.504 305.099 83.2945 304.461 81.8616C304.431 81.7956 304.385 81.7533 304.346 81.7009L305.691 78.6464C310.822 85.2097 334.803 95.9106 337.938 97.2902C337.961 97.3005 338 97.3173 338.025 97.3287C338.057 97.3428 338.102 97.3623 338.13 97.3748C341.231 98.7398 364.884 109.009 373.416 108.59L356.749 146.457L339.017 146.131C339.447 143.322 338.005 140.452 335.287 139.234L308.943 127.443L308.908 127.427C306.125 126.203 302.943 127.111 301.167 129.427L288.983 116.609L303.523 83.5753C304.336 84.9105 305.431 85.9963 306.806 86.8311C307.712 87.3811 308.369 85.8642 307.472 85.3192ZM336.416 146.837L336.416 146.838C335.489 148.913 333.053 149.846 330.975 148.932L330.951 148.921L304.609 137.131C302.528 136.199 301.59 133.748 302.522 131.668C303.45 129.593 305.887 128.657 307.966 129.571L307.989 129.582L334.332 141.372C336.415 142.305 337.349 144.758 336.416 146.837ZM339.333 186.034L338.877 186.039C336.866 186.979 324.293 184.147 303.7 175.083C283.107 166.018 272.527 158.662 271.861 156.542L271.557 156.203L272.47 154.129C276.298 158.795 291.239 166.742 304.753 172.691C318.268 178.639 334.218 184.289 340.246 183.961L339.333 186.034ZM341.552 180.993L341.551 180.992L341.328 181.498L340.873 181.505C338.861 182.445 326.289 179.611 305.697 170.547C285.103 161.483 274.523 154.126 273.857 152.007L273.554 151.667L287.962 118.931L300.069 131.667C299.251 134.689 300.707 137.949 303.654 139.27L329.998 151.06L330.034 151.076C333.049 152.403 336.524 151.22 338.176 148.455L355.731 148.779L341.552 180.993ZM369.122 124.167C369.436 124.45 369.686 124.812 369.831 125.246C370.072 125.967 370.026 126.765 369.698 127.495C369.159 128.699 367.993 129.388 366.868 129.286L369.122 124.167ZM370.904 138.064L369.022 142.27C367.24 146.248 362.881 148.225 359.346 146.599C359.322 146.582 359.291 146.579 359.264 146.567L365.904 131.48C367.702 131.947 369.618 131.3 370.897 129.866C370.935 129.887 370.96 129.921 371 129.939C372.622 130.663 372.895 131.544 372.806 132.643C372.688 134.088 371.822 136.019 370.904 138.064Z" fill="black"/>
<path d="M310.678 89.7243C313.468 92.1737 318.852 94.9566 323.179 97.1915C325.518 98.4006 328.169 99.7702 328.52 100.175C328.64 100.361 328.649 100.443 328.652 100.444C328.628 100.522 328.436 100.728 328.306 100.865C328.023 101.168 327.636 101.583 327.348 102.184C326.791 103.349 326.768 104.812 327.287 105.826C327.643 106.522 328.247 106.976 328.975 107.109C330.421 107.369 331.495 106.29 332.357 105.426C333.17 104.606 333.702 104.123 334.197 104.3C334.381 104.362 334.482 104.471 334.559 104.652C334.783 105.159 334.692 106.091 334.339 106.916C333.827 108.119 332.876 110.357 334.326 111.8C334.542 112.014 334.789 112.181 335.059 112.3C335.433 112.464 335.854 112.535 336.308 112.506C337.345 112.439 338.455 111.825 339.139 110.942C339.613 110.33 339.938 109.659 340.25 109.01C340.542 108.405 340.819 107.835 341.193 107.356C341.587 106.85 342.258 106.474 342.824 106.444C343.126 106.427 343.358 106.503 343.532 106.683C344.072 107.233 343.719 108.227 343.119 109.681C342.478 111.237 341.68 113.174 343.253 114.442C343.844 114.922 344.598 115.079 345.373 114.888C346.526 114.603 347.667 113.566 348.212 112.304C348.841 110.851 350.216 109.295 351.179 109.386C352.277 109.49 353.522 109.95 354.962 110.481C357.263 111.331 360.126 112.388 363.92 112.577C364.376 112.6 364.763 112.25 364.786 111.793C364.812 111.335 364.458 110.952 364.005 110.929C360.465 110.752 357.848 109.785 355.538 108.932C353.988 108.36 352.651 107.865 351.339 107.742C349.261 107.544 347.426 109.969 346.699 111.647C346.364 112.422 345.624 113.126 344.978 113.284C344.618 113.374 344.414 113.256 344.29 113.157C343.721 112.697 344.046 111.776 344.65 110.31C345.277 108.789 346.056 106.895 344.712 105.527C344.207 105.011 343.505 104.752 342.733 104.795C341.696 104.853 340.581 105.46 339.894 106.339C339.413 106.956 339.082 107.636 338.765 108.293C338.475 108.892 338.204 109.457 337.834 109.931C337.44 110.439 336.77 110.82 336.203 110.858C335.899 110.878 335.667 110.804 335.491 110.626C334.886 110.025 335.365 108.729 335.86 107.564C336.284 106.568 336.564 105.107 336.075 103.991C335.812 103.389 335.348 102.965 334.754 102.745C333.235 102.206 332.1 103.345 331.187 104.26C330.387 105.064 329.821 105.584 329.269 105.483C329.123 105.456 328.919 105.387 328.758 105.073C328.475 104.522 328.511 103.586 328.841 102.896C329.018 102.524 329.27 102.255 329.514 101.994C330.018 101.454 330.777 100.642 329.913 99.2854C329.497 98.6366 328.029 97.8389 323.938 95.7238C319.914 93.6469 314.408 90.8001 311.768 88.4831C311.428 88.1866 310.904 88.2159 310.603 88.5595C310.302 88.9019 310.336 89.4237 310.678 89.7243Z" fill="black"/>
<path d="M331.249 145.369L331.257 145.343C331.228 145.314 331.144 145.301 331.088 145.288C330.687 145.088 330.113 144.829 329.308 144.471L316.138 138.575L316.133 138.573C315.72 138.392 315.24 138.577 315.055 138.989C314.87 139.402 315.054 139.885 315.467 140.072L330.577 146.836L330.586 146.84L330.595 146.843L330.706 146.892L330.709 146.884C331.111 146.997 331.623 146.854 331.79 146.482C332.017 145.975 332.091 145.81 331.249 145.369Z" fill="black"/>
<path d="M312.559 136.974L307.7 134.798L307.695 134.796C307.284 134.615 306.803 134.8 306.617 135.212C306.433 135.625 306.617 136.109 307.03 136.295L311.889 138.471L311.893 138.472C312.305 138.654 312.785 138.468 312.971 138.057C313.157 137.644 312.972 137.159 312.559 136.974Z" fill="black"/>
<path d="M367.554 112.855C368.615 112.934 369.669 112.92 370.725 112.802C371.782 112.683 371.597 111.041 370.537 111.161C369.621 111.265 368.714 111.29 367.795 111.221C366.742 111.143 366.49 112.776 367.554 112.855Z" fill="black"/>
</g>
<defs>
<filter id="filter0_d_118_1230" x="255.002" y="272.144" width="129.975" height="133.595" filterUnits="userSpaceOnUse" color-interpolation-filters="sRGB">
<feFlood flood-opacity="0" result="BackgroundImageFix"/>
<feColorMatrix in="SourceAlpha" type="matrix" values="0 0 0 0 0 0 0 0 0 0 0 0 0 0 0 0 0 0 127 0" result="hardAlpha"/>
<feOffset dy="4"/>
<feGaussianBlur stdDeviation="4"/>
<feComposite in2="hardAlpha" operator="out"/>
<feColorMatrix type="matrix" values="0 0 0 0 0 0 0 0 0 0 0 0 0 0 0 0 0 0 0.25 0"/>
<feBlend mode="normal" in2="BackgroundImageFix" result="effect1_dropShadow_118_1230"/>
<feBlend mode="normal" in="SourceGraphic" in2="effect1_dropShadow_118_1230" result="shape"/>
</filter>
<filter id="filter1_d_118_1230" x="93.0978" y="169.419" width="123.313" height="129.827" filterUnits="userSpaceOnUse" color-interpolation-filters="sRGB">
<feFlood flood-opacity="0" result="BackgroundImageFix"/>
<feColorMatrix in="SourceAlpha" type="matrix" values="0 0 0 0 0 0 0 0 0 0 0 0 0 0 0 0 0 0 127 0" result="hardAlpha"/>
<feOffset dy="4"/>
<feGaussianBlur stdDeviation="4"/>
<feComposite in2="hardAlpha" operator="out"/>
<feColorMatrix type="matrix" values="0 0 0 0 0 0 0 0 0 0 0 0 0 0 0 0 0 0 0.25 0"/>
<feBlend mode="normal" in2="BackgroundImageFix" result="effect1_dropShadow_118_1230"/>
<feBlend mode="normal" in="SourceGraphic" in2="effect1_dropShadow_118_1230" result="shape"/>
</filter>
<filter id="filter2_d_118_1230" x="261.028" y="70.4728" width="123.66" height="130.038" filterUnits="userSpaceOnUse" color-interpolation-filters="sRGB">
<feFlood flood-opacity="0" result="BackgroundImageFix"/>
<feColorMatrix in="SourceAlpha" type="matrix" values="0 0 0 0 0 0 0 0 0 0 0 0 0 0 0 0 0 0 127 0" result="hardAlpha"/>
<feOffset dy="4"/>
<feGaussianBlur stdDeviation="4"/>
<feComposite in2="hardAlpha" operator="out"/>
<feColorMatrix type="matrix" values="0 0 0 0 0 0 0 0 0 0 0 0 0 0 0 0 0 0 0.25 0"/>
<feBlend mode="normal" in2="BackgroundImageFix" result="effect1_dropShadow_118_1230"/>
<feBlend mode="normal" in="SourceGraphic" in2="effect1_dropShadow_118_1230" result="shape"/>
</filter>
</defs>
</svg>
