<svg width="200" height="205" viewBox="0 0 200 205" fill="none" xmlns="http://www.w3.org/2000/svg">
<path d="M198.814 61.6442C197.283 57.2412 193.948 54.9738 188.916 54.8805C188.663 52.5336 187.742 50.3458 186.177 48.6247C184.616 46.9091 182.603 45.8632 180.42 45.5174V12.0807L179.59 11.2517C179.532 11.1309 179.469 11.0101 179.397 10.8894L179.287 10.9525L178.028 9.6898H177.767C166.661 0.296459 107.334 0 99.9546 0C92.5721 0 33.2453 0.296459 22.1426 9.6898H21.8787L19.4838 12.0807V45.5283C17.3364 45.8879 15.3595 46.9338 13.8198 48.6247C12.2525 50.3431 11.3342 52.5336 11.0812 54.8805C6.04955 54.9738 2.71436 57.2439 1.18562 61.6469C-0.0544256 65.2154 -0.0241806 69.7172 0.0115635 74.9299L0.0748029 84.3315C0.110547 89.8736 2.11221 95.0808 5.71686 98.9979C9.26102 102.849 13.9325 105.007 18.9257 105.117L19.4866 105.35V181.172V182.295V192.404L21.8814 194.795H22.4093C30.7074 201.155 67.7823 204.065 99.9574 204.065C132.13 204.065 169.205 201.155 177.503 194.795H178.031L180.425 192.404V182.295V179.206V105.386C190.791 105.158 199.854 95.6738 199.928 84.3287L199.988 74.9271C200.024 69.7172 200.054 65.2126 198.814 61.6442ZM17.3612 51.8391C17.9661 51.1748 18.6974 50.7136 19.4838 50.4364V61.7869C17.3447 61.021 15.7747 58.8031 15.7582 56.1487C15.7444 54.5154 16.3163 52.9837 17.3612 51.8391ZM19.4838 100.357C19.4618 100.354 19.4371 100.34 19.4123 100.34C19.3738 100.335 19.3463 100.34 19.3133 100.34C15.5327 100.34 11.9583 98.718 9.24177 95.7644C6.44274 92.7229 4.88925 88.6548 4.86175 84.3013L4.79851 74.897C4.76552 70.3238 4.73802 66.0059 5.70586 63.2115C6.44274 61.0869 7.68003 59.6678 11.3094 59.6458C11.4002 59.6458 11.4744 59.6019 11.5651 59.5937C12.7667 63.2911 15.7774 66.0636 19.4838 66.7032V100.357ZM174.536 12.9234C172.949 14.3563 167.217 16.0005 158.019 17.4389L163.202 9.30825C169.364 10.5078 173.274 11.7815 174.536 12.9234ZM143.719 6.65934C149.875 7.24676 155.212 7.93301 159.639 8.66867L154.706 16.4068C154.398 16.8844 154.398 17.4499 154.602 17.9385C148.613 18.762 141.398 19.4921 133.067 20.0384L143.353 7.71616C143.612 7.40872 143.716 7.03266 143.719 6.65934ZM124.195 5.31429C129.952 5.57507 135.278 5.92094 140.145 6.33543L130.23 18.213C129.735 18.8032 129.746 19.6212 130.164 20.2223C123.881 20.5901 117.005 20.8509 109.597 20.9744L123.722 6.50287C124.046 6.17347 124.203 5.74251 124.195 5.31429ZM103.705 4.80647C109.57 4.84216 115.132 4.96294 120.362 5.15783L105.286 20.6039C105.162 20.7301 105.085 20.8811 105.008 21.0321C103.408 21.0458 101.819 21.065 100.169 21.065C94.5793 21.0623 89.2534 20.9827 84.2053 20.8372L103.705 4.80647ZM82.3493 5.06175C87.436 4.8998 92.8031 4.80373 98.4589 4.78726L80.3971 19.6376C80.0672 19.9094 79.8802 20.2855 79.8225 20.678C74.2079 20.4666 68.9343 20.1811 64.1006 19.8243L81.7197 6.3766C82.1431 6.04995 82.3411 5.5586 82.3493 5.06175ZM58.5163 6.4315C64.2628 5.92643 70.683 5.50919 77.7081 5.22096L59.1157 19.418C52.679 18.8526 47.037 18.1828 42.3435 17.4499L57.7932 8.33652C58.4696 7.9385 58.7308 7.14794 58.5163 6.4315ZM53.6441 6.90364L37.5208 16.415C37.4493 16.4562 37.4053 16.5248 37.3421 16.577C30.6992 15.2951 26.6876 13.9281 25.6648 12.7258C28.2603 10.796 38.0185 8.52593 53.6441 6.90364ZM25.5466 12.8026C25.5548 12.852 25.574 12.8575 25.574 12.9207C25.574 12.9893 25.5603 12.992 25.5548 13.0414C25.5053 13.003 25.4146 12.9591 25.3706 12.9207C25.4118 12.8822 25.4998 12.8438 25.5466 12.8026ZM33.094 28.5314C29.9073 28.1142 26.9873 26.7005 24.6145 24.5484C24.5045 24.4496 24.3835 24.4084 24.268 24.3425V17.5322C39.2723 25.5723 92.9488 25.844 99.9491 25.844C100.001 25.844 100.087 25.844 100.144 25.844C100.216 25.844 100.315 25.844 100.378 25.844C107.304 25.844 160.01 25.5805 175.628 17.782L175.633 180.335C175.633 180.335 165.443 189.027 99.9546 189.173C43.4348 189.3 23.1507 180.389 24.2735 180.389C24.28 183.826 24.268 29.3132 24.268 27.6221C24.268 27.6221 31.664 31.7144 33.094 31.9022C35.2414 32.185 35.2222 28.8114 33.094 28.5314ZM175.636 190.447L174.786 190.831C171.797 194.241 145.943 199.286 99.9546 199.286C53.9631 199.286 28.1119 194.243 25.1204 190.831L24.2735 190.447V185.825C35.2772 191.391 69.7729 193.952 99.9546 193.952C130.136 193.952 164.629 191.391 175.636 185.825V190.447ZM180.42 50.4062C181.242 50.6779 182.006 51.1473 182.636 51.8391C183.681 52.9865 184.25 54.5154 184.239 56.1487C184.223 58.8415 182.609 61.0869 180.42 61.8198V50.4062ZM195.199 74.897L195.141 84.3013C195.083 93.195 188.374 100.48 180.423 100.348C180.483 100.348 180.362 100.337 180.423 100.348V66.7114C184.17 66.1048 187.222 63.3214 188.435 59.5909C188.523 59.5991 188.597 59.6431 188.688 59.6431C192.317 59.6623 193.554 61.0842 194.291 63.2088C195.262 66.0059 195.232 70.3238 195.199 74.897Z" fill="black"/>
<path d="M42.7206 34.123C49.9574 36.404 62.3221 37.1754 72.2561 37.793C77.6288 38.1279 83.7162 38.5067 84.7061 38.9733C85.0828 39.2231 85.168 39.3686 85.1735 39.3686C85.1927 39.5333 85.003 40.0768 84.8738 40.4392C84.5933 41.238 84.2112 42.3305 84.1672 43.6892C84.0847 46.3244 85.245 49.0749 87.0514 50.5435C88.2915 51.5509 89.7955 51.9022 91.2665 51.5509C94.1865 50.8482 95.3056 47.9495 96.2074 45.6272C97.0543 43.4285 97.6509 42.0889 98.7232 42.012C99.1192 41.9764 99.3969 42.0971 99.6911 42.3716C100.527 43.1347 101.124 44.9492 101.143 46.7801C101.176 49.4482 101.239 54.4111 105.141 55.9127C105.721 56.135 106.32 56.2448 106.922 56.2448C107.758 56.2448 108.605 56.0307 109.43 55.6025C111.313 54.6253 112.886 52.5665 113.439 50.3541C113.821 48.8224 113.876 47.3016 113.925 45.8331C113.975 44.4633 114.022 43.1704 114.327 41.9681C114.649 40.6999 115.594 39.4455 116.628 38.9239C117.178 38.644 117.676 38.5945 118.149 38.7894C119.612 39.3714 119.771 41.518 119.845 44.7268C119.928 48.1608 120.029 52.4348 124.016 53.5108C125.518 53.9198 127.057 53.5931 128.35 52.5995C130.271 51.1199 131.553 48.2459 131.534 45.4405C131.514 42.2097 132.804 38.1718 134.682 37.5514C136.821 36.8432 139.529 36.6785 142.661 36.4864C147.665 36.1817 153.893 35.8029 161.146 33.0359C162.018 32.7038 162.452 31.7321 162.119 30.8592C161.792 29.9835 160.813 29.558 159.947 29.8874C153.178 32.4677 147.486 32.8136 142.463 33.1183C139.092 33.3242 136.183 33.4998 133.626 34.348C129.576 35.6876 128.141 41.7238 128.163 45.457C128.174 47.1781 127.368 49.1023 126.29 49.9286C125.691 50.3925 125.212 50.3403 124.899 50.258C123.455 49.8655 123.304 47.8781 123.227 44.6445C123.147 41.2874 123.046 37.1095 119.405 35.6602C118.036 35.1112 116.51 35.2045 115.1 35.9182C113.208 36.8789 111.621 38.9294 111.06 41.1364C110.667 42.6846 110.609 44.2273 110.557 45.715C110.508 47.0711 110.467 48.3502 110.164 49.5388C109.845 50.8125 108.905 52.0752 107.876 52.6104C107.324 52.8987 106.829 52.9508 106.353 52.7642C104.725 52.1383 104.555 49.3247 104.522 46.7417C104.495 44.5319 103.815 41.5728 101.981 39.8902C100.994 38.9816 99.7763 38.5726 98.484 38.6494C95.1983 38.891 94.0133 41.9517 93.0592 44.4112C92.2233 46.5715 91.5937 48.0071 90.4774 48.2734C90.1832 48.342 89.7432 48.3804 89.1851 47.9275C88.2007 47.1314 87.4969 45.3527 87.5463 43.7935C87.5711 42.9536 87.8213 42.2426 88.0633 41.5536C88.5609 40.1317 89.3116 37.9906 86.5785 36.168C85.267 35.2978 81.863 35.0151 72.4679 34.4277C63.2294 33.8567 50.5843 33.0661 43.7379 30.9086C42.8581 30.6341 41.9012 31.1199 41.6208 32.0093C41.3403 32.8959 41.8325 33.843 42.7206 34.123Z" fill="black"/>
<path d="M168.173 30.5682C170.222 29.8435 172.182 28.9514 174.06 27.8616C175.941 26.7719 174.242 23.8567 172.358 24.9519C170.73 25.899 169.053 26.6923 167.277 27.3181C165.242 28.0373 166.117 31.2956 168.173 30.5682Z" fill="black"/>
<ellipse cx="100.555" cy="119.326" rx="41.6667" ry="43.2341" fill="#CF5555"/>
<path d="M100.555 76.092C77.581 76.092 58.8887 95.4859 58.8887 119.326C58.8887 143.166 77.581 162.56 100.555 162.56C123.53 162.56 142.222 143.166 142.222 119.326C142.222 95.4859 123.53 76.092 100.555 76.092ZM100.555 159.235C79.3486 159.235 62.0938 141.331 62.0938 119.326C62.0938 97.3217 79.3486 79.4177 100.555 79.4177C121.762 79.4177 139.017 97.3217 139.017 119.326C139.017 141.331 121.762 159.235 100.555 159.235Z" fill="black"/>
<path d="M114.402 100.907L83.8221 132.967C83.1492 133.589 83.1911 134.885 83.822 135.529C84.4908 136.211 85.7886 136.206 86.404 135.567L117.29 103.288C117.998 102.549 117.927 101.414 117.129 100.758C116.33 100.098 115.112 100.164 114.402 100.907Z" fill="black"/>
<path d="M117.196 132.541L86.298 100.811C85.6987 100.112 84.4494 100.156 83.829 100.811C83.1714 101.504 83.176 102.851 83.7924 103.49L114.901 135.537C115.613 136.272 116.707 136.198 117.339 135.371C117.975 134.542 117.911 133.278 117.196 132.541Z" fill="black"/>
</svg>
