<svg width="200" height="300" viewBox="0 0 200 300" fill="none" xmlns="http://www.w3.org/2000/svg">
<rect x="0.5" y="0.5" width="199" height="299" rx="4.5" fill="white" stroke="black"/>
<path d="M57.8652 19.3125L59.6406 15.4688H61.5625L58.7617 20.9062V24H56.9746V20.9062L54.1738 15.4688H56.1016L57.8652 19.3125ZM61.5801 20.7715C61.5801 20.1426 61.7012 19.582 61.9434 19.0898C62.1855 18.5977 62.5332 18.2168 62.9863 17.9473C63.4434 17.6777 63.9727 17.543 64.5742 17.543C65.4297 17.543 66.127 17.8047 66.666 18.3281C67.209 18.8516 67.5117 19.5625 67.5742 20.4609L67.5859 20.8945C67.5859 21.8672 67.3145 22.6484 66.7715 23.2383C66.2285 23.8242 65.5 24.1172 64.5859 24.1172C63.6719 24.1172 62.9414 23.8242 62.3945 23.2383C61.8516 22.6523 61.5801 21.8555 61.5801 20.8477V20.7715ZM63.2734 20.8945C63.2734 21.4961 63.3867 21.957 63.6133 22.2773C63.8398 22.5938 64.1641 22.752 64.5859 22.752C64.9961 22.752 65.3164 22.5957 65.5469 22.2832C65.7773 21.9668 65.8926 21.4629 65.8926 20.7715C65.8926 20.1816 65.7773 19.7246 65.5469 19.4004C65.3164 19.0762 64.9922 18.9141 64.5742 18.9141C64.1602 18.9141 63.8398 19.0762 63.6133 19.4004C63.3867 19.7207 63.2734 20.2188 63.2734 20.8945ZM72.4258 23.3555C72.0078 23.8633 71.4297 24.1172 70.6914 24.1172C70.0117 24.1172 69.4922 23.9219 69.1328 23.5312C68.7773 23.1406 68.5957 22.5684 68.5879 21.8145V17.6602H70.2812V21.7559C70.2812 22.416 70.582 22.7461 71.1836 22.7461C71.7578 22.7461 72.1523 22.5469 72.3672 22.1484V17.6602H74.0664V24H72.4727L72.4258 23.3555ZM78.9062 19.248C78.6758 19.2168 78.4727 19.2012 78.2969 19.2012C77.6562 19.2012 77.2363 19.418 77.0371 19.8516V24H75.3438V17.6602H76.9434L76.9902 18.416C77.3301 17.834 77.8008 17.543 78.4023 17.543C78.5898 17.543 78.7656 17.5684 78.9297 17.6191L78.9062 19.248ZM89.5234 21.1582C89.457 22.0762 89.1172 22.7988 88.5039 23.3262C87.8945 23.8535 87.0898 24.1172 86.0898 24.1172C84.9961 24.1172 84.1348 23.75 83.5059 23.0156C82.8809 22.2773 82.5684 21.2656 82.5684 19.9805V19.459C82.5684 18.6387 82.7129 17.916 83.002 17.291C83.291 16.666 83.7031 16.1875 84.2383 15.8555C84.7773 15.5195 85.4023 15.3516 86.1133 15.3516C87.0977 15.3516 87.8906 15.6152 88.4922 16.1426C89.0938 16.6699 89.4414 17.4102 89.5352 18.3633H87.7773C87.7344 17.8125 87.5801 17.4141 87.3145 17.168C87.0527 16.918 86.6523 16.793 86.1133 16.793C85.5273 16.793 85.0879 17.0039 84.7949 17.4258C84.5059 17.8438 84.3574 18.4941 84.3496 19.377V20.0215C84.3496 20.9434 84.4883 21.6172 84.7656 22.043C85.0469 22.4688 85.4883 22.6816 86.0898 22.6816C86.6328 22.6816 87.0371 22.5586 87.3027 22.3125C87.5723 22.0625 87.7266 21.6777 87.7656 21.1582H89.5234ZM90.3027 20.7715C90.3027 20.1426 90.4238 19.582 90.666 19.0898C90.9082 18.5977 91.2559 18.2168 91.709 17.9473C92.166 17.6777 92.6953 17.543 93.2969 17.543C94.1523 17.543 94.8496 17.8047 95.3887 18.3281C95.9316 18.8516 96.2344 19.5625 96.2969 20.4609L96.3086 20.8945C96.3086 21.8672 96.0371 22.6484 95.4941 23.2383C94.9512 23.8242 94.2227 24.1172 93.3086 24.1172C92.3945 24.1172 91.6641 23.8242 91.1172 23.2383C90.5742 22.6523 90.3027 21.8555 90.3027 20.8477V20.7715ZM91.9961 20.8945C91.9961 21.4961 92.1094 21.957 92.3359 22.2773C92.5625 22.5938 92.8867 22.752 93.3086 22.752C93.7188 22.752 94.0391 22.5957 94.2695 22.2832C94.5 21.9668 94.6152 21.4629 94.6152 20.7715C94.6152 20.1816 94.5 19.7246 94.2695 19.4004C94.0391 19.0762 93.7148 18.9141 93.2969 18.9141C92.8828 18.9141 92.5625 19.0762 92.3359 19.4004C92.1094 19.7207 91.9961 20.2188 91.9961 20.8945ZM99.1387 24H97.4395V15H99.1387V24ZM100.275 20.7715C100.275 20.1426 100.396 19.582 100.639 19.0898C100.881 18.5977 101.229 18.2168 101.682 17.9473C102.139 17.6777 102.668 17.543 103.27 17.543C104.125 17.543 104.822 17.8047 105.361 18.3281C105.904 18.8516 106.207 19.5625 106.27 20.4609L106.281 20.8945C106.281 21.8672 106.01 22.6484 105.467 23.2383C104.924 23.8242 104.195 24.1172 103.281 24.1172C102.367 24.1172 101.637 23.8242 101.09 23.2383C100.547 22.6523 100.275 21.8555 100.275 20.8477V20.7715ZM101.969 20.8945C101.969 21.4961 102.082 21.957 102.309 22.2773C102.535 22.5938 102.859 22.752 103.281 22.752C103.691 22.752 104.012 22.5957 104.242 22.2832C104.473 21.9668 104.588 21.4629 104.588 20.7715C104.588 20.1816 104.473 19.7246 104.242 19.4004C104.012 19.0762 103.688 18.9141 103.27 18.9141C102.855 18.9141 102.535 19.0762 102.309 19.4004C102.082 19.7207 101.969 20.2188 101.969 20.8945ZM110.887 19.248C110.656 19.2168 110.453 19.2012 110.277 19.2012C109.637 19.2012 109.217 19.418 109.018 19.8516V24H107.324V17.6602H108.924L108.971 18.416C109.311 17.834 109.781 17.543 110.383 17.543C110.57 17.543 110.746 17.5684 110.91 17.6191L110.887 19.248ZM121.744 24H119.986L116.564 18.3867V24H114.807V15.4688H116.564L119.992 21.0938V15.4688H121.744V24ZM126.842 24C126.764 23.8477 126.707 23.6582 126.672 23.4316C126.262 23.8887 125.729 24.1172 125.072 24.1172C124.451 24.1172 123.936 23.9375 123.525 23.5781C123.119 23.2188 122.916 22.7656 122.916 22.2188C122.916 21.5469 123.164 21.0312 123.66 20.6719C124.16 20.3125 124.881 20.1309 125.822 20.127H126.602V19.7637C126.602 19.4707 126.525 19.2363 126.373 19.0605C126.225 18.8848 125.988 18.7969 125.664 18.7969C125.379 18.7969 125.154 18.8652 124.99 19.002C124.83 19.1387 124.75 19.3262 124.75 19.5645H123.057C123.057 19.1973 123.17 18.8574 123.396 18.5449C123.623 18.2324 123.943 17.9883 124.357 17.8125C124.771 17.6328 125.236 17.543 125.752 17.543C126.533 17.543 127.152 17.7402 127.609 18.1348C128.07 18.5254 128.301 19.0762 128.301 19.7871V22.5352C128.305 23.1367 128.389 23.5918 128.553 23.9004V24H126.842ZM125.441 22.8223C125.691 22.8223 125.922 22.7676 126.133 22.6582C126.344 22.5449 126.5 22.3945 126.602 22.207V21.1172H125.969C125.121 21.1172 124.67 21.4102 124.615 21.9961L124.609 22.0957C124.609 22.3066 124.684 22.4805 124.832 22.6172C124.98 22.7539 125.184 22.8223 125.441 22.8223ZM131.189 17.6602L131.242 18.3691C131.691 17.8184 132.299 17.543 133.064 17.543C133.881 17.543 134.441 17.8652 134.746 18.5098C135.191 17.8652 135.826 17.543 136.65 17.543C137.338 17.543 137.85 17.7441 138.186 18.1465C138.521 18.5449 138.689 19.1465 138.689 19.9512V24H136.99V19.957C136.99 19.5977 136.92 19.3359 136.779 19.1719C136.639 19.0039 136.391 18.9199 136.035 18.9199C135.527 18.9199 135.176 19.1621 134.98 19.6465L134.986 24H133.293V19.9629C133.293 19.5957 133.221 19.3301 133.076 19.166C132.932 19.002 132.686 18.9199 132.338 18.9199C131.857 18.9199 131.51 19.1191 131.295 19.5176V24H129.602V17.6602H131.189ZM142.914 24.1172C141.984 24.1172 141.227 23.832 140.641 23.2617C140.059 22.6914 139.768 21.9316 139.768 20.9824V20.8184C139.768 20.1816 139.891 19.6133 140.137 19.1133C140.383 18.6094 140.73 18.2227 141.18 17.9531C141.633 17.6797 142.148 17.543 142.727 17.543C143.594 17.543 144.275 17.8164 144.771 18.3633C145.271 18.9102 145.521 19.6855 145.521 20.6895V21.3809H141.484C141.539 21.7949 141.703 22.127 141.977 22.377C142.254 22.627 142.604 22.752 143.025 22.752C143.678 22.752 144.188 22.5156 144.555 22.043L145.387 22.9746C145.133 23.334 144.789 23.6152 144.355 23.8184C143.922 24.0176 143.441 24.1172 142.914 24.1172ZM142.721 18.9141C142.385 18.9141 142.111 19.0273 141.9 19.2539C141.693 19.4805 141.561 19.8047 141.502 20.2266H143.857V20.0918C143.85 19.7168 143.748 19.4277 143.553 19.2246C143.357 19.0176 143.08 18.9141 142.721 18.9141Z" fill="black"/>
<path d="M10 42H190V261.098C190 261.098 188.65 311.889 126.55 255.122C107.911 233.687 100.147 263.591 95.3708 266.726C84.9208 273.586 70.2908 261.867 65.8 269.065C40.6 305.913 10 248.151 10 248.151V42Z" fill="#CF5555"/>
<line x1="10" y1="32.5" x2="190" y2="32.5" stroke="black"/>
</svg>
