<svg width="192" height="212" viewBox="0 0 192 212" fill="none" xmlns="http://www.w3.org/2000/svg">
<g filter="url(#filter0_d_34_200)">
<path d="M106.82 39.9474C108.652 37.6375 109.785 34.7252 109.785 31.5606C109.785 24.083 103.694 18 96.1848 18C88.6753 18 82.5756 24.083 82.5756 31.5606C82.5756 34.7258 83.5477 37.6375 85.3786 39.9474C79.772 43.4866 75.9135 49.7162 75.9135 56.8017V73.3002C75.9135 75.8113 78.2174 77.9909 80.7392 77.9909H111.667C114.189 77.9909 116.088 75.8107 116.088 73.3002V56.8017C116.087 49.7162 112.428 43.4859 106.82 39.9474Z" fill="#2E2B2B"/>
<path d="M65.5656 93.485V76.9866C65.5656 69.9017 62.0632 63.6708 56.4553 60.1323C58.2875 57.8224 59.4988 54.91 59.4988 51.7455C59.4988 44.2679 53.4472 38.1849 45.9377 38.1849C38.4283 38.1849 32.3481 44.2685 32.3481 51.7461C32.3481 54.9112 33.4772 57.823 35.3081 60.1329C29.7009 63.672 26 69.9017 26 76.9872V93.4857C26 95.9968 28.0093 97.9933 30.5305 97.9933H61.4588C63.9806 97.9927 65.5656 95.9962 65.5656 93.485Z" fill="#2E2B2B"/>
<path d="M156.898 60.1329C158.729 57.823 159.945 54.9106 159.945 51.7461C159.945 44.2685 153.895 38.1855 146.385 38.1855C138.876 38.1855 132.796 44.2685 132.796 51.7461C132.796 54.9112 133.918 57.823 135.75 60.1329C130.143 63.672 126.434 69.9017 126.434 76.9872V93.4856C126.434 95.9968 128.459 97.9933 130.981 97.9933H161.909C164.431 97.9933 166 95.9968 166 93.4856V76.9872C166 69.9017 162.504 63.6714 156.898 60.1329Z" fill="#2E2B2B"/>
<path d="M106.82 140.11C108.652 137.801 109.785 134.889 109.785 131.724C109.785 124.247 103.694 118.164 96.1848 118.164C88.6753 118.164 82.5756 124.247 82.5756 131.724C82.5756 134.889 83.5477 137.801 85.3786 140.111C79.772 143.65 75.9135 149.88 75.9135 156.965V173.464C75.9135 175.975 78.2174 178 80.7392 178H111.667C114.189 178 116.088 175.974 116.088 173.464V156.965C116.087 149.879 112.428 143.65 106.82 140.11ZM96.203 127.255C98.6774 127.255 100.691 129.26 100.691 131.724C100.691 134.189 98.6774 136.193 96.203 136.193C93.7287 136.193 91.7151 134.188 91.7151 131.724C91.7151 129.26 93.7281 127.255 96.203 127.255ZM106.957 168.908H85.0439V156.965C85.0439 150.981 89.9907 146.112 96.0009 146.112C102.01 146.112 106.957 150.981 106.957 156.965V168.908Z" fill="#2E2B2B"/>
<path d="M100.261 101.98V86.916C100.261 84.4048 98.2178 82.3701 95.6959 82.3701C93.1741 82.3701 91.1307 84.4048 91.1307 86.916V101.98C91.1307 104.491 93.1741 106.526 95.6959 106.526C98.2171 106.526 100.261 104.491 100.261 101.98Z" fill="#2E2B2B"/>
<path d="M51.7745 102.963C49.9429 101.238 47.0553 101.316 45.3199 103.139C43.5863 104.962 43.6655 107.839 45.4958 109.566L68.449 131.208C69.3322 132.041 70.4607 132.453 71.5874 132.453C72.7969 132.453 74.0052 131.977 74.903 131.033C76.6365 129.21 76.5574 126.333 74.7271 124.606L51.7745 102.963Z" fill="#2E2B2B"/>
<path d="M140.589 102.899L117.698 124.591C115.872 126.322 115.8 129.2 117.538 131.018C118.435 131.958 119.639 132.43 120.846 132.43C121.976 132.43 123.109 132.015 123.992 131.178L146.883 109.485C148.709 107.755 148.781 104.878 147.043 103.059C145.305 101.239 142.415 101.169 140.589 102.899Z" fill="#2E2B2B"/>
</g>
<defs>
<filter id="filter0_d_34_200" x="0" y="0" width="192" height="212" filterUnits="userSpaceOnUse" color-interpolation-filters="sRGB">
<feFlood flood-opacity="0" result="BackgroundImageFix"/>
<feColorMatrix in="SourceAlpha" type="matrix" values="0 0 0 0 0 0 0 0 0 0 0 0 0 0 0 0 0 0 127 0" result="hardAlpha"/>
<feOffset dy="8"/>
<feGaussianBlur stdDeviation="13"/>
<feComposite in2="hardAlpha" operator="out"/>
<feColorMatrix type="matrix" values="0 0 0 0 0 0 0 0 0 0 0 0 0 0 0 0 0 0 0.25 0"/>
<feBlend mode="normal" in2="BackgroundImageFix" result="effect1_dropShadow_34_200"/>
<feBlend mode="normal" in="SourceGraphic" in2="effect1_dropShadow_34_200" result="shape"/>
</filter>
</defs>
</svg>
